<svg aria-hidden="true" style="position: absolute; width: 0; height: 0; overflow: hidden;"
  version="1.1" xmlns="http://www.w3.org/2000/svg" xmlns:xlink="http://www.w3.org/1999/xlink">
  <defs>

    <symbol id="icon-logo" viewBox="0 0 127 32">
      <path fill="#fff" style="fill: var(--color1, #fff)"
        d="M31.36 16.32c0 8.66-6.877 15.68-15.36 15.68s-15.36-7.020-15.36-15.68c0-8.66 6.877-15.68 15.36-15.68s15.36 7.020 15.36 15.68z"></path>
      <path fill="#d41443" style="fill: var(--color2, #d41443)"
        d="M11.849 0.562c-7.406 2.243-11.849 8.073-11.849 15.442 0 6.023 3.091 11.277 8.179 13.904 2.64 1.346 3.027 0.384 0.58-1.474-1.739-1.41-2.061-2.050-2.061-4.421 0-1.666-0.386-3.011-0.966-3.524-1.159-0.961-1.288-3.46-0.129-4.357 0.451-0.384 0.902-1.666 0.966-2.819 0.322-4.229 4.894-8.201 9.467-8.201s9.145 3.973 9.466 8.201c0.064 1.153 0.515 2.435 0.966 2.819 1.159 0.897 1.030 3.396-0.129 4.357-0.58 0.513-0.966 1.858-0.966 3.524 0 2.371-0.322 3.011-2.061 4.421-2.705 2.114-1.932 2.883 1.095 1.025 4.25-2.627 7.406-8.33 7.406-13.391 0-10.124-10.561-18.325-19.963-15.506z"></path>
      <path fill="#d41443" style="fill: var(--color2, #d41443)"
        d="M12.686 7.994c-1.159 0.513-2.125 1.153-2.125 1.538 0 0.705 3.477 1.986 5.474 1.986s5.474-1.281 5.474-1.986c0-0.769-3.993-2.499-5.603-2.499-0.644 0.064-2.125 0.449-3.22 0.961z"></path>
      <path fill="#d41443" style="fill: var(--color2, #d41443)"
        d="M45.851 11.326c-0.966 0.256-1.159 1.089-1.159 5.703v5.382h4.572l-0.193-5.574c-0.193-5.831-0.451-6.279-3.22-5.51z"></path>
      <path fill="#d41443" style="fill: var(--color2, #d41443)"
        d="M53.386 11.646c-2.125 1.153-2.898 2.563-2.898 5.318 0 3.78 2.061 5.574 5.86 5.318 2.576-0.192 2.833-0.384 3.027-1.986s0.064-1.73-1.932-1.602c-2.061 0.192-2.125 0.064-2.125-2.050s0.129-2.243 1.996-2.050c1.546 0.128 2.125-0.128 2.383-1.089 0.129-0.641 0-1.538-0.386-1.922-0.902-0.897-4.25-0.897-5.925 0.064z"></path>
      <path fill="#d41443" style="fill: var(--color2, #d41443)"
        d="M61.049 11.71c-0.193 0.513-0.258 3.011-0.129 5.638l0.193 4.741h4.186c3.864 0 4.186-0.128 4.379-1.474 0.193-1.217-0.064-1.41-2.060-1.41-1.288 0-2.319-0.32-2.319-0.641 0-0.384 0.902-0.641 1.932-0.641 1.481 0 1.932-0.256 1.932-1.281s-0.451-1.281-1.932-1.281c-1.030 0-1.932-0.32-1.932-0.641 0-0.384 0.837-0.641 1.868-0.641 1.804 0 3.027-1.41 2.254-2.627-0.58-0.961-7.985-0.705-8.372 0.256z"></path>
      <path fill="#d41443" style="fill: var(--color2, #d41443)"
        d="M73.993 11.518c-2.125 0.833-2.962 2.307-3.027 4.998-0.065 4.613 1.803 6.215 6.633 5.767 1.868-0.128 2.189-0.448 2.189-1.794 0-1.41-0.257-1.602-2.061-1.41-1.546 0.128-2.125-0.064-2.447-1.089-0.58-1.986 0.644-3.588 2.705-3.588 1.224 0 1.868-0.384 1.996-1.217 0.451-2.050-2.833-3.011-5.989-1.666z"></path>
      <path fill="#d41443" style="fill: var(--color2, #d41443)"
        d="M81.914 11.262c-0.323 0.256-0.515 2.883-0.515 5.831v5.382l2.060-0.192c1.61-0.128 2.19-0.577 2.512-1.794l0.386-1.602 0.515 1.73c0.387 1.474 0.837 1.794 2.512 1.794 2.769 0 3.091-0.448 1.932-2.691-0.708-1.41-0.837-2.114-0.322-2.627 0.837-0.833 0.902-3.652 0.129-4.87-0.644-1.025-8.371-1.858-9.208-0.961zM87.194 14.722c0 0.705-0.257 1.281-0.644 1.281-0.322 0-0.644-0.577-0.644-1.281s0.322-1.281 0.644-1.281c0.387 0 0.644 0.577 0.644 1.281z"></path>
      <path fill="#d41443" style="fill: var(--color2, #d41443)"
        d="M93.441 11.326c-0.258 0.192-0.451 2.819-0.451 5.767v5.318h4.186c4.057 0 4.186-0.064 4.186-1.602 0-1.346-0.322-1.602-1.932-1.602-1.030 0-1.932-0.32-1.932-0.641 0-0.384 0.708-0.641 1.61-0.641 1.159 0 1.61-0.32 1.61-1.281s-0.451-1.281-1.61-1.281c-0.902 0-1.61-0.32-1.61-0.641 0-0.384 0.902-0.641 1.932-0.641 1.61 0 1.932-0.256 1.932-1.602 0-1.538-0.193-1.602-3.735-1.602-2.061 0-3.992 0.192-4.186 0.448z"></path>
      <path fill="#d41443" style="fill: var(--color2, #d41443)"
        d="M106.45 11.262c-1.16 0.32-4.122 8.842-3.542 10.252 0.515 1.281 3.413 1.153 4.186-0.192 0.579-1.089 0.644-1.089 1.803 0 1.482 1.281 4.701 1.474 4.701 0.256 0-0.384-0.644-2.947-1.482-5.574-1.288-4.229-1.674-4.806-3.027-4.934-0.902 0-2.061 0.064-2.64 0.192zM108.253 17.093c-0.193 0.641-0.322 0.256-0.322-0.769 0-1.089 0.129-1.538 0.322-1.153 0.129 0.448 0.129 1.346 0 1.922z"></path>
      <path fill="#d41443" style="fill: var(--color2, #d41443)"
        d="M115.723 11.326c-0.58 0.192-0.837 1.986-0.837 5.703v5.382h1.868c1.61 0 1.932-0.32 2.189-1.794 0.257-1.666 0.257-1.666 0.772-0.32 0.258 0.833 0.902 1.474 1.352 1.474 0.515 0 1.224-0.641 1.546-1.474 0.515-1.346 0.58-1.346 0.58 0.384 0.065 1.602 0.257 1.794 2.061 1.602l1.996-0.192 0.065-5.318c0.129-4.934 0.064-5.318-1.288-5.638-2.061-0.513-3.799 0.705-4.379 3.076l-0.451 2.114-0.708-2.243c-0.902-3.011-2.254-3.78-4.765-2.755z"></path>
      <path fill="#d41443" style="fill: var(--color2, #d41443)"
        d="M9.016 11.967c-0.193 0.256-0.386 1.089-0.386 1.922 0 1.474 0.064 1.474 7.406 1.474s7.406 0 7.406-1.474c0-2.178-0.58-2.435-2.64-1.41-2.318 1.217-7.213 1.217-9.531 0-1.030-0.513-1.996-0.705-2.254-0.513z"></path>
      <path fill="#d41443" style="fill: var(--color2, #d41443)"
        d="M7.148 17.669c-1.030 1.089 0.708 1.538 5.731 1.538h5.409v2.243c0 1.217 0.322 2.243 0.644 2.243 0.386 0 0.644-0.961 0.644-2.178 0-2.114 0.129-2.243 2.576-2.435 1.417-0.128 2.576-0.513 2.576-0.833 0-0.705-16.872-1.281-17.581-0.577z"></path>
      <path fill="#d41443" style="fill: var(--color2, #d41443)"
        d="M8.629 23.308c0 3.524 1.224 4.229 7.406 4.229s7.406-0.705 7.406-4.229c0-1.538-0.322-2.178-0.966-2.178-0.58 0-0.966 0.577-0.966 1.538 0 3.588-4.894 3.908-5.603 0.384-0.322-1.858-0.515-1.922-3.8-1.922h-3.477v2.178z"></path>
      <path fill="#d41443" style="fill: var(--color2, #d41443)"
        d="M12.622 30.548c0.386 2.050 6.955 1.858 6.955-0.128 0-0.705-0.837-0.961-3.606-0.961-3.027 0-3.542 0.192-3.349 1.089z"></path>
    </symbol>

    <symbol id="icon-arrowright" viewBox="0 0 24 24">
      <path
        d="M11.293 5.707l5.293 5.293h-11.586c-0.552 0-1 0.448-1 1s0.448 1 1 1h11.586l-5.293 5.293c-0.391 0.391-0.391 1.024 0 1.414s1.024 0.391 1.414 0l7-7c0.092-0.092 0.166-0.202 0.217-0.324 0.101-0.245 0.101-0.521 0-0.766-0.049-0.118-0.121-0.228-0.217-0.324l-7-7c-0.391-0.391-1.024-0.391-1.414 0s-0.391 1.024 0 1.414z"></path>
    </symbol>

    <symbol id="icon-menu" viewBox="0 0 46 32">
      <path fill="none" stroke="#d41443" style="stroke: var(--color1, #d41443)"
        stroke-linejoin="miter" stroke-linecap="butt" stroke-miterlimit="4" stroke-width="2.2857"
        d="M0 2.286h45.714"></path>
      <path fill="none" stroke="#d41443" style="stroke: var(--color1, #d41443)"
        stroke-linejoin="miter" stroke-linecap="butt" stroke-miterlimit="4" stroke-width="2.2857"
        d="M0 16h45.714"></path>
      <path fill="none" stroke="#d41443" style="stroke: var(--color1, #d41443)"
        stroke-linejoin="miter" stroke-linecap="butt" stroke-miterlimit="4" stroke-width="2.2857"
        d="M0 29.714h45.714"></path>
    </symbol>

    <symbol id="icon-facebook" viewBox="0 0 16 32">
      <path fill="#fff" style="fill: var(--color1, #fff)"
        d="M14.143 15.972h-4.034v14.865h-6.112v-14.865h-2.907v-5.224h2.907v-3.381c0-2.418 1.142-6.203 6.166-6.203l4.527 0.019v5.071h-3.285c-0.539 0-1.296 0.271-1.296 1.424v3.075h4.567l-0.534 5.219z"></path>
    </symbol>
    <symbol id="icon-github" viewBox="0 0 32 32">
      <path fill="#fff" style="fill: var(--color1, #fff)"
        d="M16 0c-8.788 0-16 7.212-16 16 0 7.499 5.262 14.312 12.25 16v-5.293c-0.692 0.152-1.33 0.156-2.034-0.052-0.946-0.279-1.714-0.909-2.284-1.869-0.364-0.613-1.008-1.278-1.68-1.23l-0.165-1.868c1.453-0.124 2.711 0.886 3.457 2.14 0.332 0.558 0.713 0.884 1.203 1.029 0.473 0.14 0.982 0.072 1.574-0.137 0.149-1.186 0.692-1.63 1.102-2.255v-0.001c-4.167-0.622-5.828-2.832-6.488-4.578-0.874-2.317-0.405-5.212 1.14-7.041 0.030-0.036 0.084-0.129 0.063-0.194-0.708-2.139 0.155-3.909 0.187-4.097 0.817 0.242 0.95-0.243 3.551 1.337l0.449 0.27c0.188 0.112 0.129 0.048 0.317 0.034 1.086-0.295 2.23-0.458 3.358-0.472 1.136 0.015 2.273 0.178 3.404 0.484l0.145 0.015c-0.013-0.002 0.040-0.009 0.127-0.062 3.248-1.968 3.132-1.324 4.003-1.608 0.032 0.188 0.883 1.987 0.182 4.099-0.095 0.291 2.816 2.956 1.203 7.235-0.659 1.746-2.32 3.957-6.487 4.578v0.001c0.534 0.814 1.176 1.247 1.173 2.927v6.608c6.988-1.688 12.25-8.501 12.25-16 0-8.788-7.212-16-16-16v0z"></path>
    </symbol>
    <symbol id="icon-telegram" viewBox="0 0 44 32">
      <path fill="#fff" style="fill: var(--color1, #fff)"
        d="M17.343 21.048l-0.675 8.86c0.966 0 1.384-0.387 1.885-0.852l4.527-4.038 9.381 6.412c1.72 0.895 2.933 0.424 3.397-1.477l6.159-26.93c0.546-2.374-0.92-3.302-2.596-2.72l-36.194 12.933c-2.47 0.895-2.433 2.18-0.42 2.762l9.253 2.686 21.494-12.552c1.012-0.625 1.931-0.279 1.175 0.346l-17.386 14.57z"></path>
    </symbol>

        <symbol id="icon__coments">
      <path
        d="M40.0179 2.59234e-06C42.4286 2.80309e-06 44.7054 0.650413 46.8482 1.95122C48.9911 3.25204 50.7321 5.12196 52.0714 7.56098C53.3571 10 54 12.8726 54 16.1789C54 19.4851 53.1964 22.71 51.5893 25.8537C51.0536 26.9919 50.0893 28.4553 48.6964 30.2439C47.25 32.0325 45.9107 33.5772 44.6786 34.878L39.6161 40L36 33.9837C38.5179 32.4119 40.7411 30.4607 42.6696 28.1301C44.5982 25.8537 45.5625 23.7669 45.5625 21.8699C45.5625 20.8943 45.3482 20.1084 44.9196 19.5122C43.0446 20.8672 40.9554 21.5447 38.6518 21.5447C36.9911 21.5447 35.4107 21.0298 33.9107 20C32.3571 19.0244 31.125 17.7236 30.2143 16.0976C29.25 14.5257 28.7679 12.8997 28.7679 11.2195C28.7679 9.32249 29.3304 7.50678 30.4554 5.77236C31.5268 4.03794 32.9464 2.62873 34.7143 1.54472C36.4286 0.51491 38.1964 2.43311e-06 40.0179 2.59234e-06ZM11.1696 7.03482e-08C13.5804 2.81099e-07 15.8571 0.65041 18 1.95122C20.1429 3.25203 21.8839 5.12195 23.2232 7.56098C24.5089 10 25.1518 12.8726 25.1518 16.1789C25.1518 18.5095 24.8571 20.5962 24.2679 22.439C23.6786 24.336 22.6607 26.3144 21.2143 28.374C19.8214 30.3252 18.5089 31.9512 17.2768 33.252C16.0446 34.607 13.9018 36.8564 10.8482 40L7.23214 33.9837C9.75 32.4119 11.9732 30.4607 13.9018 28.1301C15.8304 25.8537 16.7946 23.7669 16.7946 21.8699C16.7946 20.8943 16.5804 20.1084 16.1518 19.5122C14.2768 20.8672 12.1875 21.5447 9.88393 21.5447C8.22321 21.5447 6.64285 21.0298 5.14285 20C3.58928 19.0244 2.35714 17.7236 1.44643 16.0976C0.482142 14.5257 -1.44552e-06 12.8997 -1.29863e-06 11.2195C-1.13278e-06 9.32249 0.535712 7.50677 1.60714 5.77236C2.67857 4.03794 4.09821 2.62873 5.86607 1.54472C7.58036 0.514908 9.34821 -8.88862e-08 11.1696 7.03482e-08Z"
        fill="#E1E1E1" />
    </symbol>

    <symbol id="icon__coments__home">
      <path
        d="M11.8497 5.28727C12.0672 5.06411 12.0462 4.72207 11.8028 4.5235L6.43981 0.146237C6.19638 -0.0523315 5.80611 -0.0481718 5.56781 0.155614L0.186634 4.75688C-0.0516656 4.96066 -0.0633615 5.30227 0.160739 5.51955L0.295652 5.65062C0.519479 5.86791 0.88127 5.89381 1.10322 5.70831L1.50538 5.37236V10.2907C1.50538 10.5924 1.7675 10.8367 2.09076 10.8367H4.18836C4.51162 10.8367 4.77374 10.5924 4.77374 10.2907V6.84984H7.44925V10.2907C7.4446 10.5922 7.6759 10.8365 7.99916 10.8365H10.2221C10.5453 10.8365 10.8075 10.5922 10.8075 10.2905V5.44161C10.8075 5.44161 10.9186 5.5324 11.0556 5.64474C11.1924 5.75687 11.4797 5.66697 11.6972 5.44358L11.8497 5.28727Z"
        fill="#D31342" />
    </symbol>

    <symbol id="icon__button">
      <circle cx="6.395" cy="6" r="6" />
    </symbol>

  </defs>
</svg>